<svg xmlns="http://www.w3.org/2000/svg" style="display:none" aria-hidden="true">
  <symbol id="sym-neural_chip" viewBox="0 0 100 100">
    <rect x="25" y="25" width="50" height="50" fill="none" stroke="currentColor" stroke-width="4"/>
    <circle cx="50" cy="50" r="8" fill="currentColor"/>
    <path d="M25 40 H10 M25 60 H10 M75 40 H90 M75 60 H90 M40 25 V10 M60 25 V10 M40 75 V90 M60 75 V90" stroke="currentColor" stroke-width="3"/>
  </symbol>
  <symbol id="sym-katana" viewBox="0 0 100 100">
    <path d="M15 85 L85 15" stroke="currentColor" stroke-width="5" stroke-linecap="round"/>
    <circle cx="18" cy="82" r="7" fill="none" stroke="currentColor" stroke-width="3"/>
    <path d="M12 78 L22 88" stroke="currentColor" stroke-width="3"/>
  </symbol>
  <symbol id="sym-oni_mask" viewBox="0 0 100 100">
    <path d="M20 30 Q50 10 80 30 Q85 55 70 80 Q50 90 30 80 Q15 55 20 30 Z" fill="none" stroke="currentColor" stroke-width="4"/>
    <path d="M30 45 L40 55 M60 55 L70 45" stroke="currentColor" stroke-width="4"/>
    <path d="M35 70 Q50 80 65 70" fill="none" stroke="currentColor" stroke-width="3"/>
    <path d="M20 20 L30 10 M80 20 L70 10" stroke="currentColor" stroke-width="3"/>
  </symbol>
  <symbol id="sym-neon_7" viewBox="0 0 100 100">
    <path d="M25 25 H75 L45 85" fill="none" stroke="currentColor" stroke-width="10" stroke-linejoin="round" stroke-linecap="round"/>
    <path d="M35 55 H55" stroke="currentColor" stroke-width="6" stroke-linecap="round"/>
  </symbol>
  <symbol id="sym-cyber_iris" viewBox="0 0 100 100">
    <circle cx="50" cy="50" r="35" fill="none" stroke="currentColor" stroke-width="4"/>
    <circle cx="50" cy="50" r="20" fill="none" stroke="currentColor" stroke-width="3"/>
    <circle cx="50" cy="50" r="7" fill="currentColor"/>
    <path d="M50 15 V5 M50 85 V95 M15 50 H5 M85 50 H95" stroke="currentColor" stroke-width="3"/>
  </symbol>
  <symbol id="sym-chrome_skull" viewBox="0 0 100 100">
    <path d="M25 35 Q25 15 50 15 Q75 15 75 35 L75 60 Q75 75 60 75 L60 85 L40 85 L40 75 Q25 75 25 60 Z" fill="none" stroke="currentColor" stroke-width="4"/>
    <circle cx="38" cy="45" r="6" fill="currentColor"/>
    <circle cx="62" cy="45" r="6" fill="currentColor"/>
    <path d="M45 58 L50 65 L55 58" fill="none" stroke="currentColor" stroke-width="3"/>
  </symbol>
  <symbol id="sym-gold_kanji" viewBox="0 0 100 100">
    <rect x="15" y="15" width="70" height="70" fill="none" stroke="currentColor" stroke-width="3"/>
    <path d="M30 35 H70 M50 25 V55 M35 65 H65 M40 55 L30 75 M60 55 L70 75" fill="none" stroke="currentColor" stroke-width="5" stroke-linecap="round"/>
  </symbol>
  <symbol id="sym-wild" viewBox="0 0 100 100">
    <path d="M15 25 L30 75 L40 50 L50 75 L60 50 L70 75 L85 25" fill="none" stroke="currentColor" stroke-width="7" stroke-linejoin="round" stroke-linecap="round"/>
    <text x="50" y="95" font-family="Orbitron, sans-serif" font-size="12" font-weight="700" fill="currentColor" text-anchor="middle">WILD</text>
  </symbol>
</svg>
